<svg width="32" height="32" viewBox="0 0 32 32" fill="none" xmlns="http://www.w3.org/2000/svg">
<path d="M10.6667 31.9999C13.6107 31.9999 16 29.6106 16 26.6666V21.3333H10.6667C7.72271 21.3333 5.33337 23.7226 5.33337 26.6666C5.33337 29.6106 7.72271 31.9999 10.6667 31.9999Z" fill="#0ACF83"/>
<path d="M5.33337 16.0001C5.33337 13.0561 7.72271 10.6667 10.6667 10.6667H16V21.3334H10.6667C7.72271 21.3334 5.33337 18.9441 5.33337 16.0001Z" fill="#A259FF"/>
<path d="M5.33337 5.33333C5.33337 2.38933 7.72271 0 10.6667 0H16V10.6667H10.6667C7.72271 10.6667 5.33337 8.27733 5.33337 5.33333Z" fill="#F24E1E"/>
<path d="M16 0H21.3333C24.2773 0 26.6667 2.38933 26.6667 5.33333C26.6667 8.27733 24.2773 10.6667 21.3333 10.6667H16V0Z" fill="#FF7262"/>
<path d="M26.6667 16.0001C26.6667 18.9441 24.2773 21.3334 21.3333 21.3334C18.3893 21.3334 16 18.9441 16 16.0001C16 13.0561 18.3893 10.6667 21.3333 10.6667C24.2773 10.6667 26.6667 13.0561 26.6667 16.0001Z" fill="#1ABCFE"/>
</svg>
