<svg width="48" height="49" viewBox="0 0 48 49" fill="none" xmlns="http://www.w3.org/2000/svg">
<g clip-path="url(#clip0_540_246)">
<path fill-rule="evenodd" clip-rule="evenodd" d="M24.0199 0C10.7375 0 0 11.042 0 24.7025C0 35.622 6.87988 44.8652 16.4241 48.1366C17.6174 48.3825 18.0545 47.6051 18.0545 46.9511C18.0545 46.3784 18.0151 44.4155 18.0151 42.3702C11.3334 43.8428 9.94198 39.4255 9.94198 39.4255C8.86818 36.5626 7.27715 35.8268 7.27715 35.8268C5.09022 34.3135 7.43645 34.3135 7.43645 34.3135C9.86233 34.4771 11.1353 36.8492 11.1353 36.8492C13.2824 40.6115 16.7422 39.5484 18.1341 38.8939C18.3328 37.2989 18.9695 36.1947 19.6455 35.5813C14.3163 35.0087 8.70937 32.8821 8.70937 23.3935C8.70937 20.6942 9.66321 18.4858 11.1746 16.7683C10.9361 16.155 10.1008 13.6188 11.4135 10.2244C11.4135 10.2244 13.4417 9.5699 18.0146 12.76C19.9725 12.2193 21.9916 11.9442 24.0199 11.9419C26.048 11.9419 28.1154 12.2285 30.0246 12.76C34.5981 9.5699 36.6262 10.2244 36.6262 10.2244C37.9389 13.6188 37.1031 16.155 36.8646 16.7683C38.4158 18.4858 39.3303 20.6942 39.3303 23.3935C39.3303 32.8821 33.7234 34.9675 28.3544 35.5813C29.2296 36.3583 29.9848 37.8304 29.9848 40.1618C29.9848 43.4744 29.9454 46.133 29.9454 46.9506C29.9454 47.6051 30.383 48.3825 31.5758 48.1371C41.12 44.8647 47.9999 35.622 47.9999 24.7025C48.0392 11.042 37.2624 0 24.0199 0Z" fill="white"/>
</g>
<defs>
<clipPath id="clip0_540_246">
<rect width="48" height="49" fill="white"/>
</clipPath>
</defs>
</svg>
