<svg width="48" height="49" viewBox="0 0 48 49" fill="none" xmlns="http://www.w3.org/2000/svg">
<g clip-path="url(#clip0_540_244)">
<path d="M44.4469 0H3.54375C1.58437 0 0 1.5791 0 3.53145V45.459C0 47.4113 1.58437 49 3.54375 49H44.4469C46.4062 49 48 47.4113 48 45.4686V3.53145C48 1.5791 46.4062 0 44.4469 0ZM14.2406 41.7553H7.11563V18.3654H14.2406V41.7553ZM10.6781 15.1785C8.39062 15.1785 6.54375 13.2932 6.54375 10.9676C6.54375 8.64199 8.39062 6.75664 10.6781 6.75664C12.9563 6.75664 14.8031 8.64199 14.8031 10.9676C14.8031 13.2836 12.9563 15.1785 10.6781 15.1785ZM40.9031 41.7553H33.7875V30.3857C33.7875 27.6773 33.7406 24.1842 30.0844 24.1842C26.3812 24.1842 25.8187 27.1414 25.8187 30.1943V41.7553H18.7125V18.3654H25.5375V21.5619H25.6312C26.5781 19.7244 28.9031 17.7816 32.3625 17.7816C39.5719 17.7816 40.9031 22.6242 40.9031 28.9215V41.7553Z" fill="white"/>
</g>
<defs>
<clipPath id="clip0_540_244">
<rect width="48" height="49" fill="white"/>
</clipPath>
</defs>
</svg>
