<svg width="11" height="11" viewBox="0 0 11 11" fill="none" xmlns="http://www.w3.org/2000/svg">
<path d="M6.35583 10.2159C5.27851 10.4344 4.1581 10.2695 3.18982 9.74914C2.21962 9.21757 1.46245 8.36751 1.04529 7.34289C0.626331 6.3129 0.570538 5.17054 0.887086 4.10461C1.20302 3.04283 1.87568 2.1226 2.79138 1.49914C3.69957 0.879681 4.79711 0.599719 5.89099 0.709106C6.9848 0.818529 8.00534 1.30981 8.77283 2.0968C9.60898 2.94626 10.1032 4.07425 10.1615 5.26477C10.2197 6.4552 9.83832 7.62582 9.08923 8.55286C8.40025 9.40922 7.433 9.99742 6.35583 10.2159ZM3.5199 9.14368C4.34375 9.5883 5.29791 9.72912 6.21521 9.54211C7.13834 9.35484 7.96783 8.85184 8.55994 8.11926C9.20096 7.32245 9.52664 6.31742 9.47595 5.29602C9.42519 4.27469 9.0013 3.30761 8.28455 2.57825C7.6279 1.90794 6.75636 1.4896 5.82263 1.39661C4.88893 1.30363 3.95208 1.54185 3.17615 2.06946C2.59216 2.4719 2.12054 3.01678 1.80603 3.65247C1.49149 4.28821 1.34485 4.99381 1.37927 5.70227C1.41371 6.41071 1.62764 7.09906 2.00232 7.70129C2.37699 8.30347 2.89965 8.79976 3.5199 9.14368ZM5.07068 3.43762L5.93005 3.43762L5.93005 4.12512L5.07068 4.12512L5.07068 3.43762ZM5.07068 7.56262L5.07068 4.81262L5.93005 4.81262L5.93005 7.56262L5.07068 7.56262Z" fill="#007ACC"/>
</svg>
