<svg width="16" height="16" viewBox="0 0 16 16" fill="none" xmlns="http://www.w3.org/2000/svg">
<path d="M6 2.9834H5.91113C5.71144 2.9834 5.52344 3.02461 5.34766 3.10547C5.17443 3.18307 5.02159 3.28997 4.89062 3.4248C4.76418 3.55506 4.66092 3.71016 4.58203 3.8916C4.50798 4.07107 4.47168 4.26017 4.47168 4.45898C4.47168 4.68721 4.47548 4.91361 4.4834 5.1377C4.49143 5.36103 4.4914 5.5824 4.4834 5.80176C4.4793 6.01912 4.46123 6.23301 4.42871 6.44238C4.39558 6.65128 4.33949 6.85291 4.26074 7.04492C4.18133 7.23853 4.07277 7.42234 3.93652 7.59668C3.82382 7.74084 3.68501 7.87538 3.52246 8C3.68501 8.12462 3.82382 8.25916 3.93652 8.40332C4.07277 8.57766 4.18133 8.76148 4.26074 8.95508C4.33957 9.14729 4.39561 9.35059 4.42871 9.56348C4.46128 9.76905 4.4793 9.98277 4.4834 10.2041C4.49141 10.4195 4.49142 10.6408 4.4834 10.8682C4.47548 11.0881 4.47168 11.3128 4.47168 11.541C4.47168 11.7439 4.50831 11.9343 4.58203 12.1133C4.66084 12.2907 4.76363 12.4472 4.89062 12.582C5.02166 12.7129 5.17406 12.8186 5.34766 12.9004C5.52349 12.9773 5.71125 13.0166 5.91113 13.0166H6V14H5.91113C5.59773 14 5.29377 13.9385 5.00098 13.8154C4.70796 13.6922 4.44918 13.5153 4.22559 13.2852C4.00293 13.0559 3.83752 12.8049 3.73242 12.5322V12.5312C3.63397 12.2652 3.56799 11.9902 3.53516 11.707V11.7051C3.5068 11.4213 3.49862 11.1316 3.51074 10.8359C3.52262 10.5464 3.52832 10.2563 3.52832 9.9668C3.52827 9.76867 3.48983 9.58055 3.41211 9.40137L3.41113 9.39941C3.33648 9.21883 3.23453 9.06371 3.10449 8.93359L3.10254 8.93164C2.97614 8.79769 2.82455 8.69186 2.64746 8.61426L2.64648 8.61328C2.47049 8.53233 2.28435 8.49219 2.08887 8.49219H2V7.50781H2.08887C2.28458 7.50781 2.47043 7.46956 2.64648 7.39258C2.82442 7.31063 2.97679 7.20371 3.10352 7.07324C3.23428 6.93854 3.33649 6.78302 3.41113 6.60645L3.41211 6.60547C3.4898 6.42646 3.52827 6.23582 3.52832 6.0332C3.52832 5.7437 3.52262 5.45357 3.51074 5.16406C3.49862 4.86839 3.50677 4.5806 3.53516 4.30078V4.29883C3.56798 4.01178 3.63395 3.73487 3.73242 3.46875V3.46777C3.83752 3.19511 4.00293 2.94408 4.22559 2.71484C4.44918 2.48466 4.70796 2.30782 5.00098 2.18457C5.29377 2.06145 5.59773 2 5.91113 2H6V2.9834ZM10.0889 2C10.4023 2 10.7062 2.06145 10.999 2.18457C11.292 2.30782 11.5508 2.48466 11.7744 2.71484C11.9971 2.94408 12.1625 3.19511 12.2676 3.46777V3.46875C12.366 3.7348 12.432 4.00984 12.4648 4.29297V4.29492C12.4932 4.57867 12.5014 4.8684 12.4893 5.16406C12.4774 5.45357 12.4717 5.7437 12.4717 6.0332C12.4717 6.23133 12.5102 6.41945 12.5879 6.59863L12.5889 6.60059C12.6635 6.78117 12.7655 6.93629 12.8955 7.06641L12.8975 7.06836C13.0239 7.20231 13.1754 7.30814 13.3525 7.38574L13.3535 7.38672C13.5295 7.46767 13.7157 7.50781 13.9111 7.50781H14V8.49219H13.9111C13.7154 8.49219 13.5296 8.53044 13.3535 8.60742C13.1756 8.68937 13.0232 8.79629 12.8965 8.92676C12.7657 9.06146 12.6635 9.21698 12.5889 9.39355L12.5879 9.39453C12.5102 9.57354 12.4717 9.76418 12.4717 9.9668C12.4717 10.2563 12.4774 10.5464 12.4893 10.8359C12.5014 11.1316 12.4932 11.4194 12.4648 11.6992V11.7012C12.432 11.9882 12.3661 12.2651 12.2676 12.5312V12.5322C12.1625 12.8049 11.9971 13.0559 11.7744 13.2852C11.5508 13.5153 11.292 13.6922 10.999 13.8154C10.7062 13.9385 10.4023 14 10.0889 14H10V13.0166H10.0889C10.2886 13.0166 10.4766 12.9754 10.6523 12.8945C10.8256 12.8169 10.9784 12.71 11.1094 12.5752C11.2358 12.4449 11.3391 12.2898 11.418 12.1084C11.492 11.9289 11.5283 11.7398 11.5283 11.541C11.5283 11.3128 11.5245 11.0864 11.5166 10.8623C11.5086 10.639 11.5086 10.4176 11.5166 10.1982C11.5207 9.98088 11.5388 9.76699 11.5713 9.55762C11.6044 9.34872 11.6605 9.14709 11.7393 8.95508C11.8187 8.76147 11.9272 8.57766 12.0635 8.40332C12.1762 8.25916 12.315 8.12462 12.4775 8C12.315 7.87538 12.1762 7.74084 12.0635 7.59668C11.9272 7.42234 11.8187 7.23852 11.7393 7.04492C11.6604 6.85271 11.6044 6.64941 11.5713 6.43652C11.5387 6.23095 11.5207 6.01723 11.5166 5.7959C11.5086 5.58052 11.5086 5.35915 11.5166 5.13184C11.5245 4.91187 11.5283 4.68724 11.5283 4.45898C11.5283 4.25611 11.4917 4.0657 11.418 3.88672C11.3392 3.70933 11.2364 3.55279 11.1094 3.41797C10.9783 3.28715 10.8259 3.18136 10.6523 3.09961C10.4765 3.02275 10.2887 2.9834 10.0889 2.9834H10V2H10.0889Z" fill="#EE9D28"/>
</svg>
