<svg width="41" height="40" viewBox="0 0 41 40" fill="none" xmlns="http://www.w3.org/2000/svg">
<g clip-path="url(#clip0_67_25)">
<path d="M24.3818 0L25.7852 6.80566L31.7363 2.95215L37.5361 8.57715L33.5625 14.3496L40.5801 15.7109V23.6484L33.5625 25.0098L37.5361 30.7832L31.7363 36.4082L25.7852 32.5537L24.3818 39.3604H16.1982L14.7949 32.5537L8.84277 36.4082L3.04395 30.7832L7.0166 25.0098L0 23.6484V15.7109L7.0166 14.3496L3.04395 8.57715L8.84277 2.95215L14.7949 6.80566L16.1982 0H24.3818ZM18.7002 2.93555L17.3311 9.49609L15.1328 10.3809L9.33301 6.62598L6.91504 8.9707L10.7871 14.5957L9.87402 16.7275L3.11133 18.0566V21.3359L9.87402 22.665L10.7871 24.7969L6.91504 30.4219L9.33301 32.7676L15.1328 29.0117L17.3311 29.8975L18.7002 36.457H22.082L23.4521 29.8975L25.6494 29.0117L31.4492 32.7676L33.8672 30.4219L29.9951 24.7969L30.9082 22.665L37.6719 21.3359V18.0566L30.9082 16.7275L29.9951 14.5957L33.8672 8.9707L31.4492 6.62598L25.6494 10.3809L23.4521 9.49609L22.082 2.93555H18.7002ZM20.29 14.0547C21.8267 14.0591 23.2991 14.6531 24.3857 15.707C25.4723 16.761 26.0853 18.1892 26.0898 19.6797C26.0898 20.7922 25.7496 21.8806 25.1123 22.8057C24.475 23.7307 23.5685 24.4512 22.5088 24.877C21.4492 25.3026 20.2831 25.4143 19.1582 25.1973C18.0333 24.9802 16.9995 24.4439 16.1885 23.6572C15.3776 22.8706 14.8253 21.8683 14.6016 20.7773C14.3778 19.6862 14.4927 18.5552 14.9316 17.5273C15.3705 16.4996 16.1138 15.621 17.0674 15.0029C18.0211 14.3848 19.143 14.0547 20.29 14.0547ZM21.3965 17.0889C20.8682 16.8766 20.2864 16.8215 19.7256 16.9297C19.1648 17.0379 18.6494 17.3051 18.2451 17.6973C17.8409 18.0894 17.5656 18.589 17.4541 19.1328C17.3426 19.6767 17.3995 20.2406 17.6182 20.7529C17.837 21.2654 18.2081 21.7036 18.6836 22.0117C19.159 22.3198 19.7182 22.4844 20.29 22.4844C20.6703 22.4865 21.0477 22.4155 21.3994 22.2754C21.7511 22.1352 22.071 21.9287 22.3398 21.668C22.6087 21.4072 22.8214 21.097 22.9658 20.7559C23.1103 20.4147 23.1829 20.0485 23.1807 19.6797C23.1806 19.1251 23.011 18.5832 22.6934 18.1221C22.3757 17.6609 21.9248 17.3011 21.3965 17.0889Z" fill="#C5C5C5"/>
</g>
<defs>
<clipPath id="clip0_67_25">
<rect width="40.5797" height="39.36" fill="white"/>
</clipPath>
</defs>
</svg>
