<svg width="40" height="40" viewBox="0 0 40 40" fill="none" xmlns="http://www.w3.org/2000/svg">
<path d="M25.4167 1.70909e-06C22.7674 -0.00131883 20.1743 0.762624 17.949 2.20012C15.7237 3.63761 13.9609 5.68734 12.8729 8.10283C11.7849 10.5183 11.4179 13.1967 11.816 15.8158C12.214 18.435 13.3601 20.8834 15.1166 22.8666L1.66666 38.1333L3.53331 39.8L16.9501 24.6C18.6758 25.9489 20.6987 26.8661 22.8505 27.275C25.0024 27.6839 27.2208 27.5729 29.3211 26.9511C31.4213 26.3293 33.3425 25.2146 34.9249 23.7002C36.5073 22.1857 37.7049 20.3152 38.4182 18.2442C39.1314 16.1733 39.3397 13.9617 39.0255 11.794C38.7112 9.62634 37.8837 7.56525 36.6117 5.78207C35.3398 3.99888 33.6603 2.54519 31.713 1.54236C29.7658 0.539532 27.607 0.0165253 25.4167 0.0166847V1.70909e-06ZM25.4167 25C23.1916 25 21.0165 24.3402 19.1665 23.104C17.3164 21.8679 15.8745 20.1109 15.023 18.0552C14.1715 15.9995 13.9486 13.7375 14.3827 11.5552C14.8168 9.37289 15.8884 7.36843 17.4617 5.79509C19.0351 4.22175 21.0395 3.15015 23.2218 2.71607C25.4041 2.28198 27.6662 2.50484 29.7219 3.35632C31.7775 4.20781 33.5345 5.64974 34.7707 7.4998C36.0069 9.34985 36.6667 11.525 36.6667 13.75C36.6667 16.7337 35.4814 19.5951 33.3716 21.7049C31.2618 23.8147 28.4003 25 25.4167 25Z" fill="#C5C5C5"/>
</svg>
