<svg width="37" height="41" viewBox="0 0 37 41" fill="none" xmlns="http://www.w3.org/2000/svg">
<path d="M18.6117 27.9962L17.8802 27.6163L10.9779 24.0236L10.7083 23.8839V15.921L10.9867 15.7833L14.0833 14.2482L14.514 14.0333V14.0216L14.7708 13.8781L17.8675 12.1525L18.6117 11.7374V27.9962Z" fill="#D3D3D3" stroke="#4B4B4B"/>
<path d="M22.4307 21.2911L25.7012 20.6896L26.292 20.5812V23.8956L26.0068 24.0314L19.1582 27.2941L18.4434 27.6339V11.757L19.1777 12.1476L22.165 13.7335L22.4307 13.8751V21.2911Z" fill="#4B4B4B" stroke="#D3D3D3"/>
<path d="M18.0664 39.2807L17.3271 38.8774L0.760742 29.8393L0.5 29.6967V10.6049L0.769531 10.4653L8.20117 6.60007L8.93262 6.22018V24.5083L9.63477 24.9038V5.79929L9.88281 5.65475L17.3145 1.311L18.0664 0.871552V39.2807Z" fill="#D3D3D3" stroke="#4B4B4B"/>
<path d="M27.234 24.5464L35.9049 22.8725L36.4996 22.7583V29.7094L36.2233 29.8471L19.7877 38.0551L19.0641 38.4165V0.892059L19.8073 1.30612L26.9772 5.29831L27.234 5.44089V24.5464Z" fill="#4B4B4B" stroke="#D3D3D3"/>
</svg>
