<svg width="32" height="32" viewBox="0 0 32 32" fill="none" xmlns="http://www.w3.org/2000/svg">
<g clip-path="url(#clip0_513_1053)">
<rect width="32" height="32" fill="white"/>
<path d="M16 0.5C7.45625 0.5 0.5 7.45 0.5 16C0.5 24.5438 7.45625 31.5 16 31.5C24.5438 31.5 31.5 24.5438 31.5 16C31.5 7.45 24.5438 0.5 16 0.5ZM2.0625 16C2.0625 13.9812 2.49375 12.0625 3.26875 10.3313L9.91875 28.5438C5.26875 26.2812 2.0625 21.5125 2.0625 16ZM16 29.9375C14.6313 29.9375 13.3125 29.7375 12.0625 29.3687L16.2437 17.2188L20.525 28.9562C20.5562 29.025 20.5875 29.0875 20.625 29.15C19.1812 29.6562 17.625 29.9375 16 29.9375ZM17.9188 9.46875C18.7563 9.425 19.5125 9.3375 19.5125 9.3375C20.2625 9.25 20.175 8.14375 19.425 8.1875C19.425 8.1875 17.1687 8.3625 15.7125 8.3625C14.3438 8.3625 12.0437 8.1875 12.0437 8.1875C11.2937 8.14375 11.2063 9.29375 11.9563 9.3375C11.9563 9.3375 12.6687 9.425 13.4187 9.46875L15.5875 15.4187L12.5375 24.5625L7.4625 9.46875C8.3 9.425 9.05625 9.3375 9.05625 9.3375C9.80625 9.25 9.71875 8.14375 8.96875 8.1875C8.96875 8.1875 6.7125 8.3625 5.25625 8.3625C4.99375 8.3625 4.6875 8.35625 4.35625 8.34375C7.0125 4.3125 11.55 1.65625 16.625 1.65625C20.3937 1.65625 23.825 3.09375 26.4 5.45625C26.3375 5.45 26.2812 5.44375 26.2188 5.44375C24.85 5.44375 23.8813 6.6375 23.8813 7.91875C23.8813 9.06875 24.5438 10.0375 25.25 11.1875C25.7812 12.1125 26.4 13.3062 26.4 15.0312C26.4 16.225 25.9438 17.6063 25.3375 19.5375L23.95 24.1812L18.9062 9.20625L17.9188 9.46875ZM23.0063 28.0438L27.2625 15.7375C28.0563 13.75 28.325 12.1625 28.325 10.7437C28.325 10.2312 28.2938 9.75625 28.2313 9.3125C29.3188 11.3 29.9375 13.575 29.9375 16C29.9375 21.1437 27.15 25.6313 23.0063 28.0438Z" fill="#21759B"/>
</g>
<defs>
<clipPath id="clip0_513_1053">
<rect width="32" height="32" fill="white"/>
</clipPath>
</defs>
</svg>
